<?xml version="1.0" encoding="utf-8"?>
<!-- Generator: Adobe Illustrator 24.0.1, SVG Export Plug-In . SVG Version: 6.00 Build 0)  -->
<svg version="1.1" id="Layer_1" xmlns="http://www.w3.org/2000/svg" xmlns:xlink="http://www.w3.org/1999/xlink" x="0px"
	y="0px" viewBox="0 0 310.5 256.1" style="enable-background:new 0 0 310.5 256.1;" xml:space="preserve">
	<style type="text/css">
		.st0 {
			fill: #FFFFFF;
			stroke: #FFFFFF;
			stroke-width: 5.6693;
			stroke-miterlimit: 10;
		}
	</style>
	<g id="Layer_2_2_">
		<g id="Design_1_">

			<rect x="-53.9" y="127.2" transform="matrix(0.3219 -0.9468 0.9468 0.3219 -73.5032 155.1388)" class="st0"
				width="251" height="3.3" />

			<rect x="-77.8" y="124.7" transform="matrix(0.3219 -0.9468 0.9468 0.3219 -87.1653 130.7741)" class="st0"
				width="251" height="3.1" />
			<rect x="64.8" y="147.1" class="st0" width="73.9" height="2.7" />
			<path class="st0" d="M221,140.6c-36.7-5.3-62.1-39.3-56.8-75.9c5.3-36.7,39.3-62.1,75.9-56.8c23.4,3.4,43.4,18.9,52.4,40.7
			l2.5-3.3C279,9.8,237.2-6.1,201.7,9.8s-51.5,57.8-35.5,93.3c9.6,21.4,29.2,36.7,52.3,40.7L221,140.6z" />
			<path class="st0" d="M241.3,113.5c36.7,5.3,62.1,39.3,56.8,75.9s-39.3,62.1-75.9,56.8c-23.4-3.4-43.4-18.9-52.4-40.7l-2.5,3.2
			c16,35.6,57.7,51.5,93.3,35.6s51.5-57.7,35.6-93.3c-9.6-21.4-29.2-36.7-52.4-40.7L241.3,113.5z" />
			<circle class="st0" cx="297.4" cy="54.1" r="8.4" />
			<circle class="st0" cx="231.9" cy="111.6" r="8.4" />
			<circle class="st0" cx="231.9" cy="145.5" r="8.4" />
			<circle class="st0" cx="164.9" cy="199.6" r="8.4" />
			<circle class="st0" cx="147.8" cy="148.5" r="8.7" />
		</g>
	</g>
	<g id="Layer_2_1_">
		<g id="Design">
			<rect x="-53.9" y="128.2" transform="matrix(0.3219 -0.9468 0.9468 0.3219 -74.45 155.8169)" width="251"
				height="3.3" />
			<rect x="-77.8" y="125.7" transform="matrix(0.3219 -0.9468 0.9468 0.3219 -88.1121 131.4522)" width="251"
				height="3.1" />
			<rect x="64.8" y="148.1" width="73.9" height="2.7" />
			<path d="M221,141.6c-36.7-5.3-62.1-39.3-56.8-75.9c5.3-36.7,39.3-62.1,75.9-56.8c23.4,3.4,43.4,18.9,52.4,40.7l2.5-3.3
			c-16-35.6-57.8-51.5-93.3-35.5s-51.5,57.8-35.5,93.3c9.6,21.4,29.2,36.7,52.3,40.7L221,141.6z" />
			<path d="M241.3,114.5c36.7,5.3,62.1,39.3,56.8,75.9s-39.3,62.1-75.9,56.8c-23.4-3.4-43.4-18.9-52.4-40.7l-2.5,3.2
			c16,35.6,57.7,51.5,93.3,35.6s51.5-57.7,35.6-93.3c-9.6-21.4-29.2-36.7-52.4-40.7L241.3,114.5z" />
			<circle cx="297.4" cy="55.1" r="8.4" />
			<circle cx="231.9" cy="112.6" r="8.4" />
			<circle cx="231.9" cy="146.5" r="8.4" />
			<circle cx="164.9" cy="200.6" r="8.4" />
			<circle cx="147.8" cy="149.5" r="8.7" />
		</g>
	</g>
</svg>